<svg width="3818" height="2148" xmlns="http://www.w3.org/2000/svg" xmlns:xlink="http://www.w3.org/1999/xlink" xml:space="preserve" overflow="hidden"><defs><clipPath id="clip0"><rect x="-1" y="755" width="3818" height="2148"/></clipPath></defs><g clip-path="url(#clip0)" transform="translate(1 -755)"><rect x="0" y="756" width="3815" height="2145" fill="#FFFFFF"/><g><path d="M233.5 2351.58 3764.5 2351.58M233.5 2113.57 3764.5 2113.57M233.5 1876.56 3764.5 1876.56M233.5 1638.55 3764.5 1638.55M233.5 1401.55 3764.5 1401.55M233.5 1163.54 3764.5 1163.54M233.5 926.5 3764.5 926.5" stroke="#D9D9D9" stroke-width="3.4375" stroke-linejoin="round" stroke-miterlimit="10" fill="none"/></g><g><path d="M256.008 2143.07 277.009 2143.07 277.009 2589 256.008 2589ZM349.011 2269.07 370.012 2269.07 370.012 2589 349.011 2589ZM442.014 2585.08 463.015 2585.08 463.015 2589 442.014 2589ZM535.018 2462.08 556.018 2462.08 556.018 2589 535.018 2589ZM721.024 2225.07 742.024 2225.07 742.024 2589 721.024 2589ZM907.03 2164.07 927.03 2164.07 927.03 2589 907.03 2589ZM1000.03 1897.06 1020.03 1897.06 1020.03 2589 1000.03 2589ZM1185.04 1175.04 1206.04 1175.04 1206.04 2589 1185.04 2589ZM1278.04 2145.07 1299.04 2145.07 1299.04 2589 1278.04 2589ZM1371.04 2188.07 1392.05 2188.07 1392.05 2589 1371.04 2589ZM1464.05 2417.08 1485.05 2417.08 1485.05 2589 1464.05 2589ZM1557.05 1843.06 1578.05 1843.06 1578.05 2589 1557.05 2589ZM1650.05 1419.05 1671.05 1419.05 1671.05 2589 1650.05 2589ZM1743.06 2478.08 1764.06 2478.08 1764.06 2589 1743.06 2589ZM1836.06 2235.07 1857.06 2235.07 1857.06 2589 1836.06 2589ZM1929.06 1859.06 1950.06 1859.06 1950.06 2589 1929.06 2589ZM2022.07 1264.04 2042.07 1264.04 2042.07 2589 2022.07 2589ZM2115.07 2579.08 2135.07 2579.08 2135.07 2589 2115.07 2589ZM2300.08 2585.08 2321.08 2585.08 2321.08 2589 2300.08 2589ZM2393.08 1867.06 2414.08 1867.06 2414.08 2589 2393.08 2589ZM2486.08 1799.06 2507.08 1799.06 2507.08 2589 2486.08 2589ZM2579.08 2571.08 2600.09 2571.08 2600.09 2589 2579.08 2589ZM2672.09 1907.06 2693.09 1907.06 2693.09 2589 2672.09 2589ZM2765.09 2043.07 2786.09 2043.07 2786.09 2589 2765.09 2589ZM2858.09 2103.07 2879.09 2103.07 2879.09 2589 2858.09 2589ZM2951.1 1723.06 2972.1 1723.06 2972.1 2589 2951.1 2589ZM3044.1 1714.06 3065.1 1714.06 3065.1 2589 3044.1 2589ZM3137.1 2562.08 3157.1 2562.08 3157.1 2589 3137.1 2589ZM3230.11 1586.05 3250.11 1586.05 3250.11 2589 3230.11 2589ZM3322.11 1523.05 3343.11 1523.05 3343.11 2589 3322.11 2589ZM3415.11 1733.06 3436.11 1733.06 3436.11 2589 3415.11 2589ZM3508.11 1738.06 3529.12 1738.06 3529.12 2589 3508.11 2589ZM3601.12 1954.06 3622.12 1954.06 3622.12 2589 3601.12 2589ZM3694.12 2360.08 3715.12 2360.08 3715.12 2589 3694.12 2589Z" fill="#5B9BD5"/></g><g><path d="M283.009 2339.08 303.01 2339.08 303.01 2589 283.009 2589ZM376.012 2312.08 396.013 2312.08 396.013 2589 376.012 2589ZM561.018 2578.08 582.019 2578.08 582.019 2589 561.018 2589ZM747.024 2352.08 768.025 2352.08 768.025 2589 747.024 2589ZM933.031 2572.08 954.031 2572.08 954.031 2589 933.031 2589ZM1026.03 2003.07 1047.03 2003.07 1047.03 2589 1026.03 2589ZM1212.04 1501.05 1233.04 1501.05 1233.04 2589 1212.04 2589ZM1305.04 2298.08 1326.04 2298.08 1326.04 2589 1305.04 2589ZM1398.05 2424.08 1418.05 2424.08 1418.05 2589 1398.05 2589ZM1491.05 2303.08 1511.05 2303.08 1511.05 2589 1491.05 2589ZM1583.05 2147.07 1604.05 2147.07 1604.05 2589 1583.05 2589ZM1676.05 1696.06 1697.06 1696.06 1697.06 2589 1676.05 2589ZM1769.06 2229.07 1790.06 2229.07 1790.06 2589 1769.06 2589ZM1862.06 2507.08 1883.06 2507.08 1883.06 2589 1862.06 2589ZM1955.06 2077.07 1976.06 2077.07 1976.06 2589 1955.06 2589ZM2048.07 1519.05 2069.07 1519.05 2069.07 2589 2048.07 2589ZM2420.08 2019.07 2441.08 2019.07 2441.08 2589 2420.08 2589ZM2513.08 1917.06 2534.08 1917.06 2534.08 2589 2513.08 2589ZM2699.09 1988.07 2719.09 1988.07 2719.09 2589 2699.09 2589ZM2791.09 2190.07 2812.09 2190.07 2812.09 2589 2791.09 2589ZM2884.09 2149.07 2905.1 2149.07 2905.1 2589 2884.09 2589ZM2977.1 1854.06 2998.1 1854.06 2998.1 2589 2977.1 2589ZM3070.1 1853.06 3091.1 1853.06 3091.1 2589 3070.1 2589ZM3163.1 2566.08 3184.1 2566.08 3184.1 2589 3163.1 2589ZM3256.11 1838.06 3277.11 1838.06 3277.11 2589 3256.11 2589ZM3349.11 1636.05 3370.11 1636.05 3370.11 2589 3349.11 2589ZM3442.11 1851.06 3463.11 1851.06 3463.11 2589 3442.11 2589ZM3535.12 1831.06 3556.12 1831.06 3556.12 2589 3535.12 2589ZM3628.12 2066.07 3649.12 2066.07 3649.12 2589 3628.12 2589ZM3721.12 2459.08 3741.12 2459.08 3741.12 2589 3721.12 2589Z" fill="#ED7D31"/></g><g><path d="M233.5 2588.5 3764.5 2588.5" stroke="#D9D9D9" stroke-width="3.4375" stroke-linejoin="round" stroke-miterlimit="10" fill="none" fill-rule="evenodd"/></g><g><text fill="#595959" font-family="Calibri,Calibri_MSFontService,sans-serif" font-weight="400" font-size="41" transform="matrix(1 0 0 1 50.6917 2600)">0.0000%</text></g><g><text fill="#595959" font-family="Calibri,Calibri_MSFontService,sans-serif" font-weight="400" font-size="41" transform="matrix(1 0 0 1 50.6917 2363)">2.0000%</text></g><g><text fill="#595959" font-family="Calibri,Calibri_MSFontService,sans-serif" font-weight="400" font-size="41" transform="matrix(1 0 0 1 50.6917 2125)">4.0000%</text></g><g><text fill="#595959" font-family="Calibri,Calibri_MSFontService,sans-serif" font-weight="400" font-size="41" transform="matrix(1 0 0 1 50.6917 1888)">6.0000%</text></g><g><text fill="#595959" font-family="Calibri,Calibri_MSFontService,sans-serif" font-weight="400" font-size="41" transform="matrix(1 0 0 1 50.6917 1650)">8.0000%</text></g><g><text fill="#595959" font-family="Calibri,Calibri_MSFontService,sans-serif" font-weight="400" font-size="41" transform="matrix(1 0 0 1 29.7917 1413)">10.0000%</text></g><g><text fill="#595959" font-family="Calibri,Calibri_MSFontService,sans-serif" font-weight="400" font-size="41" transform="matrix(1 0 0 1 29.7917 1175)">12.0000%</text></g><g><text fill="#595959" font-family="Calibri,Calibri_MSFontService,sans-serif" font-weight="400" font-size="41" transform="matrix(1 0 0 1 29.7917 938)">14.0000%</text></g><g><text fill="#595959" font-family="Calibri,Calibri_MSFontService,sans-serif" font-weight="400" font-size="41" transform="matrix(0.707107 -0.707107 0.707107 0.707107 226.526 2706)">att48</text></g><g><text fill="#595959" font-family="Calibri,Calibri_MSFontService,sans-serif" font-weight="400" font-size="41" transform="matrix(0.707107 -0.707107 0.707107 0.707107 296.729 2728)">bayg29</text></g><g><text fill="#595959" font-family="Calibri,Calibri_MSFontService,sans-serif" font-weight="400" font-size="41" transform="matrix(0.707107 -0.707107 0.707107 0.707107 391.968 2726)">bays29</text></g><g><text fill="#595959" font-family="Calibri,Calibri_MSFontService,sans-serif" font-weight="400" font-size="41" transform="matrix(0.707107 -0.707107 0.707107 0.707107 470.062 2741)">berlin52</text></g><g><text fill="#595959" font-family="Calibri,Calibri_MSFontService,sans-serif" font-weight="400" font-size="41" transform="matrix(0.707107 -0.707107 0.707107 0.707107 606.219 2698)">br17</text></g><g><text fill="#595959" font-family="Calibri,Calibri_MSFontService,sans-serif" font-weight="400" font-size="41" transform="matrix(0.707107 -0.707107 0.707107 0.707107 660.265 2737)">brazil58</text></g><g><text fill="#595959" font-family="Calibri,Calibri_MSFontService,sans-serif" font-weight="400" font-size="41" transform="matrix(0.707107 -0.707107 0.707107 0.707107 739.462 2750)">burma14</text></g><g><text fill="#595959" font-family="Calibri,Calibri_MSFontService,sans-serif" font-weight="400" font-size="41" transform="matrix(0.707107 -0.707107 0.707107 0.707107 824.152 2759)">dantzig42</text></g><g><text fill="#595959" font-family="Calibri,Calibri_MSFontService,sans-serif" font-weight="400" font-size="41" transform="matrix(0.707107 -0.707107 0.707107 0.707107 975.507 2700)">eil76</text></g><g><text fill="#595959" font-family="Calibri,Calibri_MSFontService,sans-serif" font-weight="400" font-size="41" transform="matrix(0.707107 -0.707107 0.707107 0.707107 1070.57 2698)">fri26</text></g><g><text fill="#595959" font-family="Calibri,Calibri_MSFontService,sans-serif" font-weight="400" font-size="41" transform="matrix(0.707107 -0.707107 0.707107 0.707107 1170.59 2691)">ft53</text></g><g><text fill="#595959" font-family="Calibri,Calibri_MSFontService,sans-serif" font-weight="400" font-size="41" transform="matrix(0.707107 -0.707107 0.707107 0.707107 1263.51 2691)">ft70</text></g><g><text fill="#595959" font-family="Calibri,Calibri_MSFontService,sans-serif" font-weight="400" font-size="41" transform="matrix(0.707107 -0.707107 0.707107 0.707107 1343.26 2704)">ftv33</text></g><g><text fill="#595959" font-family="Calibri,Calibri_MSFontService,sans-serif" font-weight="400" font-size="41" transform="matrix(0.707107 -0.707107 0.707107 0.707107 1436.18 2704)">ftv35</text></g><g><text fill="#595959" font-family="Calibri,Calibri_MSFontService,sans-serif" font-weight="400" font-size="41" transform="matrix(0.707107 -0.707107 0.707107 0.707107 1529.1 2704)">ftv38</text></g><g><text fill="#595959" font-family="Calibri,Calibri_MSFontService,sans-serif" font-weight="400" font-size="41" transform="matrix(0.707107 -0.707107 0.707107 0.707107 1622.02 2704)">ftv44</text></g><g><text fill="#595959" font-family="Calibri,Calibri_MSFontService,sans-serif" font-weight="400" font-size="41" transform="matrix(0.707107 -0.707107 0.707107 0.707107 1714.94 2704)">ftv47</text></g><g><text fill="#595959" font-family="Calibri,Calibri_MSFontService,sans-serif" font-weight="400" font-size="41" transform="matrix(0.707107 -0.707107 0.707107 0.707107 1807.86 2704)">ftv55</text></g><g><text fill="#595959" font-family="Calibri,Calibri_MSFontService,sans-serif" font-weight="400" font-size="41" transform="matrix(0.707107 -0.707107 0.707107 0.707107 1900.79 2704)">ftv64</text></g><g><text fill="#595959" font-family="Calibri,Calibri_MSFontService,sans-serif" font-weight="400" font-size="41" transform="matrix(0.707107 -0.707107 0.707107 0.707107 1993.71 2704)">ftv70</text></g><g><text fill="#595959" font-family="Calibri,Calibri_MSFontService,sans-serif" font-weight="400" font-size="41" transform="matrix(0.707107 -0.707107 0.707107 0.707107 2094.57 2696)">gr17</text></g><g><text fill="#595959" font-family="Calibri,Calibri_MSFontService,sans-serif" font-weight="400" font-size="41" transform="matrix(0.707107 -0.707107 0.707107 0.707107 2187.49 2696)">gr21</text></g><g><text fill="#595959" font-family="Calibri,Calibri_MSFontService,sans-serif" font-weight="400" font-size="41" transform="matrix(0.707107 -0.707107 0.707107 0.707107 2280.41 2696)">gr24</text></g><g><text fill="#595959" font-family="Calibri,Calibri_MSFontService,sans-serif" font-weight="400" font-size="41" transform="matrix(0.707107 -0.707107 0.707107 0.707107 2373.34 2696)">gr48</text></g><g><text fill="#595959" font-family="Calibri,Calibri_MSFontService,sans-serif" font-weight="400" font-size="41" transform="matrix(0.707107 -0.707107 0.707107 0.707107 2466.26 2696)">gr96</text></g><g><text fill="#595959" font-family="Calibri,Calibri_MSFontService,sans-serif" font-weight="400" font-size="41" transform="matrix(0.707107 -0.707107 0.707107 0.707107 2554.5 2701)">hk48</text></g><g><text fill="#595959" font-family="Calibri,Calibri_MSFontService,sans-serif" font-weight="400" font-size="41" transform="matrix(0.707107 -0.707107 0.707107 0.707107 2605.53 2743)">kroA100</text></g><g><text fill="#595959" font-family="Calibri,Calibri_MSFontService,sans-serif" font-weight="400" font-size="41" transform="matrix(0.707107 -0.707107 0.707107 0.707107 2699.47 2742)">kroB100</text></g><g><text fill="#595959" font-family="Calibri,Calibri_MSFontService,sans-serif" font-weight="400" font-size="41" transform="matrix(0.707107 -0.707107 0.707107 0.707107 2792.7 2741)">kroC100</text></g><g><text fill="#595959" font-family="Calibri,Calibri_MSFontService,sans-serif" font-weight="400" font-size="41" transform="matrix(0.707107 -0.707107 0.707107 0.707107 2883.24 2744)">kroD100</text></g><g><text fill="#595959" font-family="Calibri,Calibri_MSFontService,sans-serif" font-weight="400" font-size="41" transform="matrix(0.707107 -0.707107 0.707107 0.707107 2979.86 2740)">kroE100</text></g><g><text fill="#595959" font-family="Calibri,Calibri_MSFontService,sans-serif" font-weight="400" font-size="41" transform="matrix(0.707107 -0.707107 0.707107 0.707107 3125.28 2688)">p43</text></g><g><text fill="#595959" font-family="Calibri,Calibri_MSFontService,sans-serif" font-weight="400" font-size="41" transform="matrix(0.707107 -0.707107 0.707107 0.707107 3208.03 2698)">pr76</text></g><g><text fill="#595959" font-family="Calibri,Calibri_MSFontService,sans-serif" font-weight="400" font-size="41" transform="matrix(0.707107 -0.707107 0.707107 0.707107 3292.54 2706)">rat99</text></g><g><text fill="#595959" font-family="Calibri,Calibri_MSFontService,sans-serif" font-weight="400" font-size="41" transform="matrix(0.707107 -0.707107 0.707107 0.707107 3379.09 2713)">rd100</text></g><g><text fill="#595959" font-family="Calibri,Calibri_MSFontService,sans-serif" font-weight="400" font-size="41" transform="matrix(0.707107 -0.707107 0.707107 0.707107 3473.59 2711)">ry48p</text></g><g><text fill="#595959" font-family="Calibri,Calibri_MSFontService,sans-serif" font-weight="400" font-size="41" transform="matrix(0.707107 -0.707107 0.707107 0.707107 3584.04 2693)">st70</text></g><g><text fill="#595959" font-family="Calibri,Calibri_MSFontService,sans-serif" font-weight="400" font-size="41" transform="matrix(0.707107 -0.707107 0.707107 0.707107 3636.37 2734)">swiss42</text></g><g><text fill="#595959" font-family="Calibri,Calibri_MSFontService,sans-serif" font-weight="400" font-size="64" transform="matrix(1 0 0 1 1169.94 852)">Relative Percent Difference to the Known Global Optimal</text></g><g><rect x="1678" y="2824" width="23" height="22" fill="#5B9BD5"/></g><g><text fill="#595959" font-family="Calibri,Calibri_MSFontService,sans-serif" font-weight="400" font-size="41" transform="matrix(1 0 0 1 1710.44 2847)">Average RPD</text></g><g><rect x="1970" y="2824" width="22" height="22" fill="#ED7D31"/></g><g><text fill="#595959" font-family="Calibri,Calibri_MSFontService,sans-serif" font-weight="400" font-size="41" transform="matrix(1 0 0 1 2001.79 2847)">Best RPD</text></g><rect x="0.499836" y="756.5" width="3815" height="2145" stroke="#D9D9D9" stroke-width="3.4375" stroke-linejoin="round" stroke-miterlimit="10" fill="none"/></g></svg>