<svg width="3818" height="2148" xmlns="http://www.w3.org/2000/svg" xmlns:xlink="http://www.w3.org/1999/xlink" xml:space="preserve" overflow="hidden"><defs><clipPath id="clip0"><rect x="3788" y="755" width="3818" height="2148"/></clipPath></defs><g clip-path="url(#clip0)" transform="translate(-3788 -755)"><rect x="3789" y="756" width="3815" height="2145" fill="#FFFFFF"/><g><path d="M3899.5 2399.58 7553.5 2399.58M3899.5 2104.57 7553.5 2104.57M3899.5 1809.56 7553.5 1809.56M3899.5 1515.55 7553.5 1515.55M3899.5 1220.54 7553.5 1220.54M3899.5 926.5 7553.5 926.5" stroke="#D9D9D9" stroke-width="3.4375" stroke-linejoin="round" stroke-miterlimit="10" fill="none"/></g><g><path d="M3932.13 2337.08 3962.13 2337.08 3962.13 2694 3932.13 2694ZM4028.13 2561.08 4058.13 2561.08 4058.13 2694 4028.13 2694ZM4124.14 2560.08 4155.14 2560.08 4155.14 2694 4124.14 2694ZM4221.14 2283.07 4251.14 2283.07 4251.14 2694 4221.14 2694ZM4317.14 2647.09 4347.14 2647.09 4347.14 2694 4317.14 2694ZM4413.15 2193.07 4443.15 2193.07 4443.15 2694 4413.15 2694ZM4509.15 2660.09 4539.15 2660.09 4539.15 2694 4509.15 2694ZM4605.15 2426.08 4635.15 2426.08 4635.15 2694 4605.15 2694ZM4701.15 1812.06 4732.16 1812.06 4732.16 2694 4701.15 2694ZM4798.16 2586.08 4828.16 2586.08 4828.16 2694 4798.16 2694ZM4894.16 2300.08 4924.16 2300.08 4924.16 2694 4894.16 2694ZM4990.16 1950.06 5020.17 1950.06 5020.17 2694 4990.16 2694ZM5086.17 2533.08 5116.17 2533.08 5116.17 2694 5086.17 2694ZM5182.17 2515.08 5212.17 2515.08 5212.17 2694 5182.17 2694ZM5278.17 2483.08 5309.17 2483.08 5309.17 2694 5278.17 2694ZM5375.18 2412.08 5405.18 2412.08 5405.18 2694 5375.18 2694ZM5471.18 2383.08 5501.18 2383.08 5501.18 2694 5471.18 2694ZM5567.18 2262.07 5597.18 2262.07 5597.18 2694 5567.18 2694ZM5663.19 2126.07 5693.19 2126.07 5693.19 2694 5663.19 2694ZM5759.19 2009.07 5789.19 2009.07 5789.19 2694 5759.19 2694ZM5855.19 2646.09 5886.19 2646.09 5886.19 2694 5855.19 2694ZM5952.2 2623.09 5982.2 2623.09 5982.2 2694 5952.2 2694ZM6048.2 2601.09 6078.2 2601.09 6078.2 2694 6048.2 2694ZM6144.2 2342.08 6174.2 2342.08 6174.2 2694 6144.2 2694ZM6240.21 1324.04 6270.21 1324.04 6270.21 2694 6240.21 2694ZM6336.21 2333.08 6366.21 2333.08 6366.21 2694 6336.21 2694ZM6432.21 1167.04 6463.21 1167.04 6463.21 2694 6432.21 2694ZM6529.21 1172.04 6559.22 1172.04 6559.22 2694 6529.21 2694ZM6625.22 1171.04 6655.22 1171.04 6655.22 2694 6625.22 2694ZM6721.22 1173.04 6751.22 1173.04 6751.22 2694 6721.22 2694ZM6817.22 1178.04 6847.22 1178.04 6847.22 2694 6817.22 2694ZM6913.23 2450.08 6943.23 2450.08 6943.23 2694 6913.23 2694ZM7009.23 1850.06 7040.23 1850.06 7040.23 2694 7009.23 2694ZM7106.23 1257.04 7136.23 1257.04 7136.23 2694 7106.23 2694ZM7202.24 1182.04 7232.24 1182.04 7232.24 2694 7202.24 2694ZM7298.24 2336.08 7328.24 2336.08 7328.24 2694 7298.24 2694ZM7394.24 1941.06 7424.24 1941.06 7424.24 2694 7394.24 2694ZM7490.25 2422.08 7520.25 2422.08 7520.25 2694 7490.25 2694Z" fill="#5B9BD5"/></g><g><path d="M3899.5 2693.5 7553.5 2693.5" stroke="#D9D9D9" stroke-width="3.4375" stroke-linejoin="round" stroke-miterlimit="10" fill="none" fill-rule="evenodd"/></g><g><text fill="#595959" font-family="Calibri,Calibri_MSFontService,sans-serif" font-weight="400" font-size="41" transform="matrix(1 0 0 1 3840.03 2705)">0</text></g><g><text fill="#595959" font-family="Calibri,Calibri_MSFontService,sans-serif" font-weight="400" font-size="41" transform="matrix(1 0 0 1 3819.13 2411)">10</text></g><g><text fill="#595959" font-family="Calibri,Calibri_MSFontService,sans-serif" font-weight="400" font-size="41" transform="matrix(1 0 0 1 3819.13 2116)">20</text></g><g><text fill="#595959" font-family="Calibri,Calibri_MSFontService,sans-serif" font-weight="400" font-size="41" transform="matrix(1 0 0 1 3819.13 1822)">30</text></g><g><text fill="#595959" font-family="Calibri,Calibri_MSFontService,sans-serif" font-weight="400" font-size="41" transform="matrix(1 0 0 1 3819.13 1527)">40</text></g><g><text fill="#595959" font-family="Calibri,Calibri_MSFontService,sans-serif" font-weight="400" font-size="41" transform="matrix(1 0 0 1 3819.13 1232)">50</text></g><g><text fill="#595959" font-family="Calibri,Calibri_MSFontService,sans-serif" font-weight="400" font-size="41" transform="matrix(1 0 0 1 3819.13 938)">60</text></g><g><text fill="#595959" font-family="Calibri,Calibri_MSFontService,sans-serif" font-weight="400" font-size="41" transform="matrix(0.707107 -0.707107 0.707107 0.707107 3893.99 2811)">att48</text></g><g><text fill="#595959" font-family="Calibri,Calibri_MSFontService,sans-serif" font-weight="400" font-size="41" transform="matrix(0.707107 -0.707107 0.707107 0.707107 3967.44 2833)">bayg29</text></g><g><text fill="#595959" font-family="Calibri,Calibri_MSFontService,sans-serif" font-weight="400" font-size="41" transform="matrix(0.707107 -0.707107 0.707107 0.707107 4065.93 2831)">bays29</text></g><g><text fill="#595959" font-family="Calibri,Calibri_MSFontService,sans-serif" font-weight="400" font-size="41" transform="matrix(0.707107 -0.707107 0.707107 0.707107 4147.28 2846)">berlin52</text></g><g><text fill="#595959" font-family="Calibri,Calibri_MSFontService,sans-serif" font-weight="400" font-size="41" transform="matrix(0.707107 -0.707107 0.707107 0.707107 4286.68 2803)">br17</text></g><g><text fill="#595959" font-family="Calibri,Calibri_MSFontService,sans-serif" font-weight="400" font-size="41" transform="matrix(0.707107 -0.707107 0.707107 0.707107 4343.98 2841)">brazil58</text></g><g><text fill="#595959" font-family="Calibri,Calibri_MSFontService,sans-serif" font-weight="400" font-size="41" transform="matrix(0.707107 -0.707107 0.707107 0.707107 4426.43 2855)">burma14</text></g><g><text fill="#595959" font-family="Calibri,Calibri_MSFontService,sans-serif" font-weight="400" font-size="41" transform="matrix(0.707107 -0.707107 0.707107 0.707107 4514.37 2863)">dantzig42</text></g><g><text fill="#595959" font-family="Calibri,Calibri_MSFontService,sans-serif" font-weight="400" font-size="41" transform="matrix(0.707107 -0.707107 0.707107 0.707107 4668.97 2805)">eil76</text></g><g><text fill="#595959" font-family="Calibri,Calibri_MSFontService,sans-serif" font-weight="400" font-size="41" transform="matrix(0.707107 -0.707107 0.707107 0.707107 4767.28 2803)">fri26</text></g><g><text fill="#595959" font-family="Calibri,Calibri_MSFontService,sans-serif" font-weight="400" font-size="41" transform="matrix(0.707107 -0.707107 0.707107 0.707107 4870.55 2796)">ft53</text></g><g><text fill="#595959" font-family="Calibri,Calibri_MSFontService,sans-serif" font-weight="400" font-size="41" transform="matrix(0.707107 -0.707107 0.707107 0.707107 4966.72 2796)">ft70</text></g><g><text fill="#595959" font-family="Calibri,Calibri_MSFontService,sans-serif" font-weight="400" font-size="41" transform="matrix(0.707107 -0.707107 0.707107 0.707107 5049.72 2809)">ftv33</text></g><g><text fill="#595959" font-family="Calibri,Calibri_MSFontService,sans-serif" font-weight="400" font-size="41" transform="matrix(0.707107 -0.707107 0.707107 0.707107 5145.89 2809)">ftv35</text></g><g><text fill="#595959" font-family="Calibri,Calibri_MSFontService,sans-serif" font-weight="400" font-size="41" transform="matrix(0.707107 -0.707107 0.707107 0.707107 5242.06 2809)">ftv38</text></g><g><text fill="#595959" font-family="Calibri,Calibri_MSFontService,sans-serif" font-weight="400" font-size="41" transform="matrix(0.707107 -0.707107 0.707107 0.707107 5338.24 2809)">ftv44</text></g><g><text fill="#595959" font-family="Calibri,Calibri_MSFontService,sans-serif" font-weight="400" font-size="41" transform="matrix(0.707107 -0.707107 0.707107 0.707107 5434.41 2809)">ftv47</text></g><g><text fill="#595959" font-family="Calibri,Calibri_MSFontService,sans-serif" font-weight="400" font-size="41" transform="matrix(0.707107 -0.707107 0.707107 0.707107 5530.58 2809)">ftv55</text></g><g><text fill="#595959" font-family="Calibri,Calibri_MSFontService,sans-serif" font-weight="400" font-size="41" transform="matrix(0.707107 -0.707107 0.707107 0.707107 5626.75 2809)">ftv64</text></g><g><text fill="#595959" font-family="Calibri,Calibri_MSFontService,sans-serif" font-weight="400" font-size="41" transform="matrix(0.707107 -0.707107 0.707107 0.707107 5722.92 2809)">ftv70</text></g><g><text fill="#595959" font-family="Calibri,Calibri_MSFontService,sans-serif" font-weight="400" font-size="41" transform="matrix(0.707107 -0.707107 0.707107 0.707107 5827.03 2801)">gr17</text></g><g><text fill="#595959" font-family="Calibri,Calibri_MSFontService,sans-serif" font-weight="400" font-size="41" transform="matrix(0.707107 -0.707107 0.707107 0.707107 5923.21 2801)">gr21</text></g><g><text fill="#595959" font-family="Calibri,Calibri_MSFontService,sans-serif" font-weight="400" font-size="41" transform="matrix(0.707107 -0.707107 0.707107 0.707107 6019.38 2801)">gr24</text></g><g><text fill="#595959" font-family="Calibri,Calibri_MSFontService,sans-serif" font-weight="400" font-size="41" transform="matrix(0.707107 -0.707107 0.707107 0.707107 6115.55 2801)">gr48</text></g><g><text fill="#595959" font-family="Calibri,Calibri_MSFontService,sans-serif" font-weight="400" font-size="41" transform="matrix(0.707107 -0.707107 0.707107 0.707107 6211.72 2801)">gr96</text></g><g><text fill="#595959" font-family="Calibri,Calibri_MSFontService,sans-serif" font-weight="400" font-size="41" transform="matrix(0.707107 -0.707107 0.707107 0.707107 6303.21 2806)">hk48</text></g><g><text fill="#595959" font-family="Calibri,Calibri_MSFontService,sans-serif" font-weight="400" font-size="41" transform="matrix(0.707107 -0.707107 0.707107 0.707107 6357.49 2848)">kroA100</text></g><g><text fill="#595959" font-family="Calibri,Calibri_MSFontService,sans-serif" font-weight="400" font-size="41" transform="matrix(0.707107 -0.707107 0.707107 0.707107 6454.69 2847)">kroB100</text></g><g><text fill="#595959" font-family="Calibri,Calibri_MSFontService,sans-serif" font-weight="400" font-size="41" transform="matrix(0.707107 -0.707107 0.707107 0.707107 6551.16 2846)">kroC100</text></g><g><text fill="#595959" font-family="Calibri,Calibri_MSFontService,sans-serif" font-weight="400" font-size="41" transform="matrix(0.707107 -0.707107 0.707107 0.707107 6644.95 2849)">kroD100</text></g><g><text fill="#595959" font-family="Calibri,Calibri_MSFontService,sans-serif" font-weight="400" font-size="41" transform="matrix(0.707107 -0.707107 0.707107 0.707107 6744.82 2845)">kroE100</text></g><g><text fill="#595959" font-family="Calibri,Calibri_MSFontService,sans-serif" font-weight="400" font-size="41" transform="matrix(0.707107 -0.707107 0.707107 0.707107 6893.5 2792)">p43</text></g><g><text fill="#595959" font-family="Calibri,Calibri_MSFontService,sans-serif" font-weight="400" font-size="41" transform="matrix(0.707107 -0.707107 0.707107 0.707107 6979.49 2803)">pr76</text></g><g><text fill="#595959" font-family="Calibri,Calibri_MSFontService,sans-serif" font-weight="400" font-size="41" transform="matrix(0.707107 -0.707107 0.707107 0.707107 7067.25 2811)">rat99</text></g><g><text fill="#595959" font-family="Calibri,Calibri_MSFontService,sans-serif" font-weight="400" font-size="41" transform="matrix(0.707107 -0.707107 0.707107 0.707107 7157.06 2817)">rd100</text></g><g><text fill="#595959" font-family="Calibri,Calibri_MSFontService,sans-serif" font-weight="400" font-size="41" transform="matrix(0.707107 -0.707107 0.707107 0.707107 7254.8 2816)">ry48p</text></g><g><text fill="#595959" font-family="Calibri,Calibri_MSFontService,sans-serif" font-weight="400" font-size="41" transform="matrix(0.707107 -0.707107 0.707107 0.707107 7368.5 2798)">st70</text></g><g><text fill="#595959" font-family="Calibri,Calibri_MSFontService,sans-serif" font-weight="400" font-size="41" transform="matrix(0.707107 -0.707107 0.707107 0.707107 7424.08 2839)">swiss42</text></g><g><text fill="#595959" font-family="Calibri,Calibri_MSFontService,sans-serif" font-weight="400" font-size="64" transform="matrix(1 0 0 1 5388.38 852)">Average Time (seconds)</text></g><rect x="3789.5" y="756.5" width="3815" height="2145" stroke="#D9D9D9" stroke-width="3.4375" stroke-linejoin="round" stroke-miterlimit="10" fill="none"/></g></svg>